<!-- <svg fill="#46b61b" height="395" width="1836" version="1.1" id="Layer_1" xmlns="http://www.w3.org/2000/svg" xmlns:xlink="http://www.w3.org/1999/xlink" viewBox="0 0 512 512" xml:space="preserve" transform="matrix(-1, 0, 0, 1, 0, 0)" stroke="#46b61b"><g id="SVGRepo_bgCarrier" stroke-width="0"></g><g id="SVGRepo_tracerCarrier" stroke-linecap="round" stroke-linejoin="round"></g><g id="SVGRepo_iconCarrier"> <g> <g> <path d="M477.867,187.638h-36.25l7.066-19.413c10.197-28.032-4.309-59.153-32.341-69.35L151.518,2.482 c-20.497-7.458-43.221,3.149-50.68,23.637l-27.793,76.373h-4.779c-18.825,0-34.133,15.309-34.133,34.133v51.012 C15.309,187.638,0,202.939,0,221.772v256c0,18.825,15.309,34.133,34.133,34.133h443.733c18.825,0,34.133-15.309,34.133-34.133 v-256C512,202.939,496.691,187.638,477.867,187.638z M162.133,290.226h-102.4c-4.71,0-8.533-3.814-8.533-8.533 s3.823-8.533,8.533-8.533h102.4c4.71,0,8.533,3.814,8.533,8.533S166.844,290.226,162.133,290.226z M162.133,256.093h-102.4 c-4.71,0-8.533-3.814-8.533-8.533s3.823-8.533,8.533-8.533h102.4c4.71,0,8.533,3.814,8.533,8.533S166.844,256.093,162.133,256.093 z M51.2,187.638v-51.012c0-9.412,7.654-17.067,17.067-17.067H202.88h29.636l17.69,24.431l7.194,9.933l24.414,33.715H51.2z M341.069,170.64c-1.263,3.473-4.54,5.623-8.021,5.623c-0.964,0-1.954-0.171-2.918-0.521l-48.683-17.715l-17.852-24.653 l72.371,26.334C340.395,161.321,342.682,166.22,341.069,170.64z M409.583,150.902c-1.254,3.465-4.531,5.615-8.013,5.615 c-0.973,0-1.954-0.162-2.918-0.512L142.046,62.599c-4.429-1.604-6.707-6.502-5.094-10.931c1.604-4.437,6.519-6.707,10.931-5.103 l256.597,93.406C408.917,141.575,411.196,146.473,409.583,150.902z"></path> </g> </g> </g></svg> -->

<svg width="1836" height="395" viewBox="0 0 512 512" id="Layer_1" version="1.1" xml:space="preserve" xmlns="http://www.w3.org/2000/svg" xmlns:xlink="http://www.w3.org/1999/xlink" fill="#62f202" stroke="#62f202"><g id="SVGRepo_bgCarrier" stroke-width="0"></g><g id="SVGRepo_tracerCarrier" stroke-linecap="round" stroke-linejoin="round"></g><g id="SVGRepo_iconCarrier"> <style type="text/css"> .st0{fill:#E6E6E6;} .st1{fill:#04f500;} .st2{fill:#4D5152;} </style> <polygon class="st0" points="266,435.8 266,425.8 482,425.8 482,242.5 196.1,242.5 118.5,425.6 246,425.8 246,435.8 "></polygon> <polygon class="st1" points="30,145.3 90,145.3 90,155.3 482,155.3 482,222.5 182.9,222.5 96.8,425.6 30,425.6 "></polygon> <g> <path class="st2" d="M262.9,135.3l-30.8-69.1H10v379.4l236,0.3v-20l-127.5-0.2l77.6-183.1l285.9,0v183.3H266v20h236V135.3H262.9z M482,222.5H182.9l-86.1,203H30V86.2h189.1l21.9,49.1H90v20h392V222.5z"></path> <rect class="st2" height="20" width="20" x="50" y="135.3"></rect> </g> </g></svg>

