<?xml version="1.0" standalone="no"?>
<!DOCTYPE svg PUBLIC "-//W3C//DTD SVG 20010904//EN"
 "http://www.w3.org/TR/2001/REC-SVG-20010904/DTD/svg10.dtd">
<svg version="1.0" xmlns="http://www.w3.org/2000/svg"
 width="256.000000pt" height="256.000000pt" viewBox="0 0 256.000000 256.000000"
 preserveAspectRatio="xMidYMid meet">

<g transform="translate(0.000000,256.000000) scale(0.100000,-0.100000)"
fill="#000000" stroke="none">
<path d="M67 1503 c-4 -3 -7 -107 -7 -230 l0 -223 145 0 c90 0 145 4 145 10 0
6 -33 10 -79 10 l-79 0 47 113 48 112 174 0 174 0 3 -112 3 -113 -131 0 c-80
0 -130 -4 -130 -10 0 -6 53 -10 140 -10 l140 0 0 185 0 185 -145 0 -145 0 -22
45 -22 45 -126 0 c-70 0 -130 -3 -133 -7z m257 -35 c30 -43 22 -48 -74 -48
-53 0 -90 -4 -90 -10 0 -6 87 -10 240 -10 l240 0 0 -40 0 -40 -179 0 c-131 0
-181 -3 -188 -12 -5 -7 -31 -64 -58 -125 l-48 -113 -37 0 -38 0 -4 203 c-3
111 -3 205 -1 210 2 4 53 7 113 7 101 0 110 -2 124 -22z"/>
<path d="M110 1410 c0 -5 5 -10 10 -10 6 0 10 5 10 10 0 6 -4 10 -10 10 -5 0
-10 -4 -10 -10z"/>
<path d="M743 1370 c-18 -11 -33 -25 -33 -32 0 -6 11 -1 25 12 18 17 37 23 70
24 54 1 61 16 8 16 -21 0 -53 -9 -70 -20z"/>
<path d="M878 1368 c30 -15 24 -44 -8 -41 -54 5 -92 5 -97 -1 -12 -11 6 -18
53 -21 111 -7 114 -90 4 -101 -53 -6 -110 7 -110 23 1 25 17 32 53 22 38 -10
77 -5 77 11 0 5 -21 12 -47 15 -27 3 -59 11 -73 16 -20 8 -22 8 -13 -2 9 -9 9
-18 -2 -39 -22 -42 1 -55 90 -55 57 0 77 4 93 18 20 18 21 18 32 -2 12 -23 68
-29 87 -10 8 8 13 8 17 0 4 -6 21 -11 38 -11 l31 0 -6 58 c-4 42 -12 62 -28
75 -26 21 -87 22 -117 1 -24 -16 -30 -44 -9 -44 8 0 8 -3 -2 -9 -10 -6 -19 -3
-31 12 -15 18 -15 24 -4 46 12 23 12 28 -3 39 -9 6 -24 12 -32 11 -11 0 -8 -4
7 -11z m170 -44 c22 -6 25 -14 37 -86 5 -33 3 -38 -14 -38 -11 0 -24 8 -30 17
-9 17 -10 17 -29 -1 -24 -21 -61 -18 -76 7 -9 15 -7 22 12 37 20 17 21 20 6
28 -15 8 -14 11 7 26 25 17 49 20 87 10z"/>
<path d="M985 1280 c-3 -5 3 -10 14 -10 11 0 23 5 26 10 3 6 -3 10 -14 10 -11
0 -23 -4 -26 -10z"/>
<path d="M980 1249 c0 -16 17 -18 35 -5 17 13 17 14 -8 14 -15 0 -27 -4 -27
-9z"/>
<path d="M1430 1339 l0 -40 -25 19 c-21 17 -41 20 -115 20 l-90 0 -6 -37 -7
-36 -12 35 c-8 24 -19 36 -34 38 -48 7 -52 -2 -27 -75 l23 -68 45 -3 c43 -3
46 -1 56 27 6 17 16 31 21 31 6 0 11 11 11 25 0 53 104 74 137 28 25 -34 16
-43 -44 -43 -54 0 -56 -1 -40 -17 14 -15 21 -15 37 -5 20 12 50 7 50 -9 0 -13
-36 -29 -68 -29 -16 0 -41 9 -56 21 -14 11 -26 16 -26 10 0 -40 115 -56 150
-21 l20 20 0 -20 c0 -19 7 -20 99 -20 59 0 102 4 106 10 4 7 11 7 18 2 16 -13
167 -13 167 -1 0 6 9 5 21 -2 31 -16 117 -6 133 16 12 17 14 17 34 -3 16 -16
34 -22 65 -22 57 0 78 17 84 67 4 35 1 43 -23 62 -41 32 -99 29 -134 -9 -29
-31 -53 -42 -29 -14 11 14 10 18 -6 30 -22 16 -98 19 -126 4 -21 -12 -27 -66
-8 -72 7 -2 5 -9 -5 -17 -14 -12 -16 -9 -16 23 0 50 -28 76 -83 76 -52 0 -96
-32 -76 -56 8 -10 8 -14 0 -14 -6 0 -11 -5 -11 -10 0 -7 7 -7 21 0 17 10 18
14 8 27 -27 32 54 58 101 33 11 -6 22 -26 25 -48 4 -20 9 -45 12 -54 3 -14 -2
-18 -21 -18 -14 0 -29 7 -34 16 -8 14 -10 14 -21 0 -8 -9 -22 -16 -33 -16 -26
0 -60 19 -53 30 3 5 -3 15 -12 22 -21 15 -24 59 -5 71 17 11 15 44 -4 51 -9 3
-56 6 -105 6 l-89 0 0 -41z m190 11 c0 -18 -7 -20 -66 -20 -48 0 -65 -3 -61
-12 3 -9 22 -12 60 -10 52 3 57 2 57 -17 0 -19 -6 -21 -60 -21 -47 0 -60 -3
-60 -15 0 -12 14 -15 65 -15 58 0 65 -2 65 -20 0 -19 -7 -20 -90 -20 l-90 0 0
85 0 85 90 0 c83 0 90 -1 90 -20z m-455 -62 c15 -54 23 -55 36 -4 9 39 15 46
35 46 29 0 29 1 2 -72 -21 -58 -22 -59 -56 -56 -32 3 -36 7 -57 66 l-23 63 26
-3 c21 -2 29 -11 37 -40z m783 36 c38 -11 19 -29 -27 -26 -24 2 -41 -1 -41 -7
0 -6 10 -11 23 -11 46 0 67 -12 67 -36 0 -27 -31 -44 -79 -44 -34 0 -63 21
-53 37 6 9 17 10 39 4 17 -5 36 -5 43 -1 18 11 -3 21 -37 18 -36 -2 -53 8 -53
32 0 34 57 50 118 34z m189 -20 c25 -35 16 -44 -44 -44 -54 0 -56 -1 -40 -17
14 -15 21 -15 37 -5 20 12 50 7 50 -9 0 -13 -36 -29 -68 -29 -45 0 -80 32 -74
70 6 42 37 63 87 56 21 -2 45 -13 52 -22z m-579 -51 c-10 -2 -26 -2 -35 0 -10
3 -2 5 17 5 19 0 27 -2 18 -5z"/>
<path d="M2054 1289 c-3 -5 7 -9 22 -9 15 0 24 3 20 7 -11 11 -35 12 -42 2z"/>
<path d="M1319 1289 c-10 -6 -3 -9 20 -9 19 0 31 3 27 7 -10 11 -32 12 -47 2z"/>
<path d="M1700 1280 c0 -5 9 -10 19 -10 11 0 23 5 26 10 4 6 -5 10 -19 10 -14
0 -26 -4 -26 -10z"/>
<path d="M1694 1249 c-8 -13 24 -18 41 -5 15 11 14 12 -10 12 -14 0 -28 -3
-31 -7z"/>
</g>
</svg>
